# xmcd
#
# Track frame offsets:
#	150
#	12829
#	31138
#	46612
#	56997
#	80709
#	99914
#	112235
#	125362
#	132611
#
# Disc length: 1993 seconds
#
# Revision: 1
# Processed by: cddbd v1.4PL0 Copyright (c) Steve Scherf et al.
# Submitted via: audiograbber 1.82.01
#
DISCID=8307c70a
DTITLE=The Admiral's Lame Dog - First
DYEAR=1993
DGENRE=Blues
TTITLE0=Flowery Future Days
TTITLE1=The Pearl
TTITLE2=Fantasy
TTITLE3=Just Kind Summer In Another Land
TTITLE4=I'll Be Frank With You
TTITLE5=Rest Over Bleeding Morning
TTITLE6=I Remember
TTITLE7=Bring It On Home To Me
TTITLE8=I Speak For The Ghost
TTITLE9=One Story
EXTD=
EXTT0=
EXTT1=
EXTT2=
EXTT3=
EXTT4=
EXTT5=
EXTT6=
EXTT7=
EXTT8=
EXTT9=
PLAYORDER=
